<?xml version="1.0" encoding="UTF-8"?>
<svg width="150px" height="48px" viewBox="0 0 150 48" version="1.1" xmlns="http://www.w3.org/2000/svg" xmlns:xlink="http://www.w3.org/1999/xlink">
    <!-- Generator: Sketch 57.1 (83088) - https://sketch.com -->
    <title>Group 4</title>
    <desc>Created with Sketch.</desc>
    <g id="Web" stroke="none" stroke-width="1" fill="none" fill-rule="evenodd">
        <g id="Mapa" transform="translate(-113.000000, -213.000000)" fill="#F05A5B" fill-rule="nonzero">
            <g id="Group-7" transform="translate(30.000000, 213.000000)">
                <g id="Group-4" transform="translate(83.000000, 0.000000)">
                    <g id="Group-2">
                        <path d="M110.787097,23.5512083 L106.40129,24.3797468 C105.996774,22.4948216 104.868387,21.5627158 103.037419,21.5627158 C100.44,21.5627158 98.9283871,23.5512083 98.9283871,26.9689298 C98.9283871,30.3452244 100.503871,32.3958573 103.143871,32.3958573 C104.314839,32.3958573 105.315484,31.9194476 105.932903,31.0909091 C106.294839,30.593786 106.443871,30.1795167 106.571613,29.3095512 L111,29.9516686 C110.595484,31.712313 110.127097,32.7272727 109.232903,33.7422325 C107.912903,35.2128884 105.847742,36 103.271613,36 C100.674194,36 98.4812903,35.2128884 96.9696774,33.721519 C95.3941935,32.1680092 94.5,29.7445339 94.5,26.9689298 C94.5,24.1518987 95.3941935,21.7698504 97.076129,20.1542002 C98.5451613,18.7663982 100.695484,18 103.186452,18 C105.932903,18 108.083226,18.9113924 109.467097,20.7134638 C110.148387,21.5627158 110.510323,22.3291139 110.787097,23.5512083 Z" id="C"></path>
                        <path d="M149.787097,23.5512083 L145.40129,24.3797468 C144.996774,22.4948216 143.868387,21.5627158 142.037419,21.5627158 C139.44,21.5627158 137.928387,23.5512083 137.928387,26.9689298 C137.928387,30.3452244 139.503871,32.3958573 142.143871,32.3958573 C143.314839,32.3958573 144.315484,31.9194476 144.932903,31.0909091 C145.294839,30.593786 145.443871,30.1795167 145.571613,29.3095512 L150,29.9516686 C149.595484,31.712313 149.127097,32.7272727 148.232903,33.7422325 C146.912903,35.2128884 144.847742,36 142.271613,36 C139.674194,36 137.48129,35.2128884 135.969677,33.721519 C134.394194,32.1680092 133.5,29.7445339 133.5,26.9689298 C133.5,24.1518987 134.394194,21.7698504 136.076129,20.1542002 C137.545161,18.7663982 139.695484,18 142.186452,18 C144.932903,18 147.083226,18.9113924 148.467097,20.7134638 C149.148387,21.5627158 149.510323,22.3291139 149.787097,23.5512083 Z" id="C"></path>
                        <g id="airbnb">
                            <path d="M80.6257426,12.4158416 C80.6257426,14.1286337 79.2456238,15.507802 77.5328317,15.507802 C75.8200396,15.507802 74.4408713,14.1286337 74.4408713,12.4158416 C74.4408713,10.7030495 75.7729901,9.32388119 77.5328317,9.32388119 C79.294099,9.37140594 80.6257426,10.7510495 80.6257426,12.4158416 L80.6257426,12.4158416 Z M67.875802,18.6482376 L67.875802,19.4095842 C67.875802,19.4095842 66.4015842,17.5057426 63.2616238,17.5057426 C58.0766733,17.5057426 54.0323168,21.4545743 54.0323168,26.9251485 C54.0323168,32.3486733 58.0291485,36.3445545 63.2616238,36.3445545 C66.4491089,36.3445545 67.875802,34.3941386 67.875802,34.3941386 L67.875802,35.2025347 C67.875802,35.5832079 68.161901,35.8678812 68.542099,35.8678812 L72.3949307,35.8678812 L72.3949307,17.9800396 L68.542099,17.9800396 C68.161901,17.9814653 67.875802,18.3150891 67.875802,18.6482376 L67.875802,18.6482376 Z M67.875802,30.1126337 C67.1629307,31.159604 65.7352871,32.0635248 64.0229703,32.0635248 C60.9785347,32.0635248 58.6469703,30.1606337 58.6469703,26.9251485 C58.6469703,23.6901386 60.9785347,21.7872475 64.0229703,21.7872475 C65.6882376,21.7872475 67.2104554,22.7386931 67.875802,23.7376634 L67.875802,30.1126337 Z M75.2497426,17.9814653 L79.816396,17.9814653 L79.816396,35.8693069 L75.2497426,35.8693069 L75.2497426,17.9814653 L75.2497426,17.9814653 Z M130.409228,25.2608317 L130.409228,35.9168317 L125.841624,35.9168317 L125.841624,25.783604 C125.841624,22.8346931 124.890178,21.6446733 122.322891,21.6446733 C120.943723,21.6446733 119.516079,22.358495 118.610733,23.4054653 L118.610733,35.8697822 L114.04503,35.8697822 L114.04503,17.9819406 L117.659287,17.9819406 C118.03996,17.9819406 118.325584,18.3150891 118.325584,18.6482376 L118.325584,19.4095842 C119.657703,18.0294653 121.417545,17.5057426 123.177386,17.5057426 C125.175802,17.5057426 126.841069,18.0774653 128.173188,19.2190099 C129.78998,20.5511287 130.409228,22.2634455 130.409228,25.2608317 L130.409228,25.2608317 Z M91.3292673,17.5052673 C92.7084356,17.5052673 93.4222574,17.7438416 93.4222574,17.7438416 L93.4222574,21.9773465 C93.4222574,21.9773465 89.6164752,20.6927525 87.2383366,23.4049901 L87.2383366,35.9163564 L82.6707327,35.9163564 L82.6707327,17.9814653 L86.5245149,17.9814653 C86.9051881,17.9814653 87.1898614,18.3146139 87.1898614,18.6477624 L87.1898614,19.4091089 C88.0472079,18.4096634 89.9025743,17.5052673 91.3292673,17.5052673 L91.3292673,17.5052673 Z M43.9000396,34.2515644 C43.6624158,33.6807921 43.4243168,33.062495 43.1866931,32.5387723 C42.8055446,31.6828515 42.4248713,30.873505 42.0926733,30.1126337 L42.0451485,30.0651089 C38.7621386,22.9287921 35.2424554,15.6983762 31.5312475,8.5630099 L31.3886733,8.27691089 C30.9983385,7.53669862 30.6179479,6.79128506 30.247604,6.04087129 C29.7714059,5.184 29.2961584,4.2810297 28.5348119,3.42415842 C27.0125941,1.52126733 24.8240792,0.47429703 22.4934653,0.47429703 C20.1143762,0.47429703 17.9738614,1.52126733 16.4045941,3.32863366 C15.6907723,4.18455446 15.1670495,5.08847525 14.691802,5.94534653 C14.3205202,6.69528925 13.9401357,7.44069086 13.5507327,8.18138614 L13.4076832,8.46748515 C9.74447525,15.6028515 6.17679208,22.8337426 2.89425743,29.9695842 L2.84625743,30.0641584 C2.51358416,30.8264554 2.13243564,31.6348515 1.75176238,32.490297 C1.51413861,33.0140198 1.27651485,33.5847921 1.03889109,34.2030891 C0.420118812,35.9629307 0.229544554,37.628198 0.468118812,39.3414653 C0.991366337,42.9096238 3.36950495,45.9055842 6.65251485,47.2386535 C7.88958416,47.7623762 9.17417822,48 10.5058218,48 C10.886495,48 11.3617426,47.9524752 11.7428911,47.9044752 C13.3131089,47.7143762 14.9303762,47.191604 16.5005941,46.2876832 C18.4510099,45.1931881 20.3063762,43.6239208 22.3993663,41.3403564 C24.4923564,43.6239208 26.3952475,45.1931881 28.2981386,46.2876832 C29.8688317,47.191604 31.4856238,47.7143762 33.0553663,47.9044752 C33.4360396,47.9529505 33.9122376,48 34.2929109,48 C35.6250297,48 36.9566733,47.7623762 38.1457426,47.2386535 C41.4762772,45.9055842 43.8068911,42.862099 44.3306139,39.3414653 C44.7084356,37.6766733 44.5183366,36.0123564 43.9000396,34.2515644 L43.9000396,34.2515644 Z M22.4454653,36.7252277 C19.8762772,33.4902178 18.2110099,30.4457822 17.6407129,27.8775446 C17.4030891,26.7830495 17.3550891,25.831604 17.4981386,24.9752079 C17.5927129,24.2138614 17.8788119,23.5475644 18.2594851,22.9767921 C19.1634059,21.6931485 20.6856238,20.883802 22.4459406,20.883802 C24.2067327,20.883802 25.7764752,21.6451485 26.6328713,22.9767921 C27.0135446,23.5475644 27.2986931,24.2143366 27.3946931,24.9752079 C27.5367921,25.8320792 27.4892673,26.8305743 27.2516436,27.8775446 C26.6789703,30.3982574 25.013703,33.4431683 22.4454653,36.7252277 Z M41.425901,38.9612673 C41.0932277,41.4349307 39.4279604,43.576396 37.0973465,44.5278416 C35.955802,45.0030891 34.7182574,45.1461386 33.4821386,45.0030891 C32.2930693,44.8600396 31.1030495,44.4793663 29.8669307,43.766495 C28.1541386,42.814099 26.4418218,41.3403564 24.4434059,39.1513663 C27.5828911,35.2985347 29.4857822,31.7774257 30.199604,28.6384158 C30.5327525,27.1632475 30.5807525,25.831604 30.4372277,24.5940594 C30.247604,23.4049901 29.8189307,22.310495 29.1531089,21.3590495 C27.6774653,19.2175842 25.2033267,17.9814653 22.4449901,17.9814653 C19.6866535,17.9814653 17.2125149,19.2660594 15.7378218,21.3590495 C15.072,22.310495 14.6433267,23.4049901 14.4532277,24.5940594 C14.2631287,25.831604 14.3101782,27.2107723 14.6908515,28.6384158 C15.404198,31.7774257 17.3546139,35.3455842 20.4465743,39.1988911 C18.4961584,41.3874059 16.7358416,42.8625743 15.0230495,43.8140198 C13.7859802,44.5278416 12.5973861,44.9085149 11.4083168,45.0506139 C10.124198,45.1936634 8.88665347,45.0030891 7.79263366,44.5753663 C5.4620198,43.6239208 3.79675248,41.4824554 3.46407921,39.0087921 C3.32150495,37.8197228 3.41607921,36.6306535 3.89227723,35.2985347 C4.03437624,34.8223366 4.2729505,34.3470891 4.51057426,33.7763168 C4.84372277,33.0149703 5.22344554,32.2056238 5.60459406,31.3972277 L5.65259406,31.3026535 C8.93465347,24.2138614 12.4548119,16.9829703 16.1180198,9.94265347 L16.2605941,9.65655446 C16.6417426,8.94368317 17.0224158,8.18233663 17.4026139,7.46851485 C17.7832871,6.70716832 18.2110099,5.99334653 18.7347327,5.37457426 C19.733703,4.2339802 21.0653465,3.61473267 22.5405149,3.61473267 C24.0156832,3.61473267 25.3473267,4.2339802 26.346297,5.37457426 C26.8700198,5.99477228 27.2977426,6.70859406 27.6784158,7.46851485 C28.0595644,8.18233663 28.4402376,8.94368317 28.8199604,9.65655446 L28.9630099,9.94265347 C32.5703582,17.0122225 36.0437706,24.1493386 39.3813861,31.3501782 L39.3813861,31.397703 C39.7625347,32.16 40.0952079,33.0154455 40.4758812,33.7777426 C40.713505,34.3475644 40.951604,34.8228119 41.0941782,35.2990099 C41.473901,36.5346535 41.6164752,37.7246733 41.425901,38.9612673 L41.425901,38.9612673 Z" id="Shape"></path>
                        </g>
                    </g>
                </g>
            </g>
        </g>
    </g>
</svg>